<svg width="20" height="20" viewBox="0 0 20 20" fill="none" xmlns="http://www.w3.org/2000/svg">
<path fill-rule="evenodd" clip-rule="evenodd" d="M9.09981 17.9499V13.8983C9.38915 13.9648 9.69047 14 10 14C10.3814 14 10.7504 13.9466 11.0998 13.8469V17.925C14.7045 17.4294 17.5433 14.5323 17.9499 10.9H13.8984C13.9649 10.6107 14 10.3094 14 10C14 9.61849 13.9466 9.24945 13.8468 8.89995H17.925C17.4384 5.36173 14.6381 2.56147 11.0998 2.07498V6.1531C10.7504 6.05339 10.3814 6 10 6C9.69047 6 9.38915 6.03516 9.09982 6.1017V2.05008C5.46767 2.45681 2.57072 5.29544 2.07501 8.89995H6.15317C6.05341 9.24945 6 9.61849 6 10C6 10.3094 6.03514 10.6107 6.10165 10.9H2.05006C2.46417 14.5991 5.40072 17.5357 9.09981 17.9499ZM20 10C20 15.5228 15.5228 20 10 20C4.47715 20 0 15.5228 0 10C0 4.47715 4.47715 0 10 0C15.5228 0 20 4.47715 20 10Z" fill="currentColor"/>
</svg>
