<svg width="20" height="20" viewBox="0 0 20 20" fill="none" xmlns="http://www.w3.org/2000/svg">
<path fill-rule="evenodd" clip-rule="evenodd" d="M10 4C11.1046 4 12 3.10457 12 2C12 0.895431 11.1046 0 10 0C8.89543 0 8 0.895431 8 2C8 3.10457 8.89543 4 10 4ZM10 20C11.1046 20 12 19.1046 12 18C12 16.8954 11.1046 16 10 16C8.89543 16 8 16.8954 8 18C8 19.1046 8.89543 20 10 20ZM4 10C4 11.1046 3.10457 12 2 12C0.895431 12 0 11.1046 0 10C0 8.89543 0.895431 8 2 8C3.10457 8 4 8.89543 4 10ZM18 12C19.1046 12 20 11.1046 20 10C20 8.89543 19.1046 8 18 8C16.8954 8 16 8.89543 16 10C16 11.1046 16.8954 12 18 12ZM17.071 5.75729C16.2899 6.53834 15.0236 6.53834 14.2425 5.75729C13.4615 4.97624 13.4615 3.70991 14.2425 2.92886C15.0236 2.14781 16.2899 2.14781 17.071 2.92886C17.852 3.70991 17.852 4.97624 17.071 5.75729ZM2.92905 17.071C3.7101 17.8521 4.97643 17.8521 5.75748 17.071C6.53852 16.29 6.53852 15.0236 5.75748 14.2426C4.97643 13.4615 3.7101 13.4615 2.92905 14.2426C2.148 15.0236 2.148 16.29 2.92905 17.071ZM5.75748 5.75729C4.97643 6.53834 3.7101 6.53834 2.92905 5.75729C2.148 4.97624 2.148 3.70991 2.92905 2.92886C3.7101 2.14781 4.97643 2.14781 5.75748 2.92886C6.53852 3.70991 6.53852 4.97624 5.75748 5.75729ZM14.2425 17.071C15.0236 17.8521 16.2899 17.8521 17.071 17.071C17.852 16.29 17.852 15.0236 17.071 14.2426C16.2899 13.4615 15.0236 13.4615 14.2425 14.2426C13.4615 15.0236 13.4615 16.29 14.2425 17.071Z" fill="#71B340"/>
</svg>