<svg width="20" height="20" viewBox="0 0 20 20" fill="none" xmlns="http://www.w3.org/2000/svg">
<path d="M20 10.0505C20 11.4815 19.7475 12.803 19.2424 14.0152C18.7542 15.2273 18.064 16.2795 17.1717 17.1717C16.2626 18.064 15.202 18.7626 13.9899 19.2677C12.7778 19.7559 11.4562 20 10.0253 20C8.57744 20 7.24747 19.7475 6.03535 19.2424C4.8064 18.7374 3.74579 18.0387 2.85353 17.1465C1.94444 16.2374 1.24579 15.1768 0.757574 13.9646C0.252524 12.7525 0 11.4478 0 10.0505C0 8.61953 0.252524 7.29798 0.757574 6.08586C1.26263 4.8569 1.9697 3.78788 2.87879 2.87879C3.78788 1.9697 4.8569 1.26262 6.08586 0.757574C7.29798 0.252523 8.61111 -1.90735e-06 10.0253 -1.90735e-06C11.4226 -1.90735e-06 12.7273 0.252523 13.9394 0.757574C15.1515 1.24579 16.2121 1.94444 17.1212 2.85354C18.0303 3.74579 18.7374 4.8064 19.2424 6.03535C19.7475 7.24747 20 8.58586 20 10.0505ZM18.0556 10.8081L1.94444 10.8081L2.22222 12.2727H17.8283L18.0556 10.8081ZM18.0556 9.26768L17.8283 7.80303L2.22222 7.80303L1.94444 9.26768L18.0556 9.26768ZM17.197 13.8131H2.80303C3.08922 14.335 3.42593 14.8148 3.81313 15.2525H16.2374C16.3889 15.0168 16.5488 14.7811 16.7172 14.5455C16.8687 14.2929 17.0286 14.0488 17.197 13.8131ZM17.2222 6.28788L16.2374 4.82323L3.76263 4.82323L2.80303 6.28788L17.2222 6.28788ZM14.5455 3.25757C13.2492 2.36532 11.7424 1.91919 10.0253 1.91919C8.39226 1.91919 6.88552 2.36532 5.50505 3.25757H14.5455ZM14.5455 16.7677H5.5303C6.84343 17.6263 8.34175 18.0556 10.0253 18.0556C10.8502 18.0556 11.6414 17.9545 12.399 17.7525C13.1397 17.5337 13.8552 17.2054 14.5455 16.7677Z" fill="#71B340"/>
</svg>
