<svg width="20" height="20" viewBox="0 0 20 20" fill="none" xmlns="http://www.w3.org/2000/svg">
<path fill-rule="evenodd" clip-rule="evenodd" d="M6.11111 19.2172C7.32323 19.7391 8.61953 20 10 20C11.3973 20 12.6936 19.7391 13.8889 19.2172C15.101 18.7121 16.1616 18.0051 17.0707 17.096C17.9966 16.17 18.7121 15.101 19.2172 13.8889C19.7391 12.6768 20 11.3805 20 10C20 8.60269 19.7391 7.3064 19.2172 6.11111C18.7194 4.91641 18.0172 3.8689 17.1105 2.96858C17.0842 2.94196 17.0577 2.91549 17.0311 2.88917C16.1308 1.98267 15.0834 1.28056 13.8889 0.782827C12.6936 0.260942 11.3973 0 10 0C8.61953 0 7.32323 0.260942 6.11111 0.782827C4.89899 1.28788 3.82997 2.00337 2.90404 2.92929C1.99495 3.83838 1.27946 4.89899 0.757576 6.11111C0.252525 7.3064 0 8.60269 0 10C0 11.3805 0.252525 12.6768 0.757576 13.8889C1.27946 15.101 1.99495 16.17 2.90404 17.096C3.82997 18.0051 4.89899 18.7121 6.11111 19.2172ZM2 10H18C18 5.58172 14.4183 2 10 2C5.58172 2 2 5.58172 2 10Z" fill="#71B340"/>
</svg>