<svg width="129" height="15" viewBox="0 0 129 15" fill="none" xmlns="http://www.w3.org/2000/svg">
<path d="M7.7959 7.03125C8.05957 7.32422 8.25293 7.64648 8.37598 7.99805C8.50488 8.34375 8.56934 8.74805 8.56934 9.21094C8.56934 10.3125 8.16211 11.2207 7.34766 11.9355C6.5332 12.6504 5.52246 13.0078 4.31543 13.0078C3.75879 13.0078 3.20215 12.9229 2.64551 12.7529C2.08887 12.5771 1.6084 12.3662 1.2041 12.1201L0.826172 12.7617H0.123047L0 8.49023H0.711914C0.858398 9.01758 1.02832 9.49512 1.22168 9.92285C1.4209 10.3447 1.68164 10.7402 2.00391 11.1094C2.30859 11.4551 2.66309 11.7305 3.06738 11.9355C3.47754 12.1406 3.95215 12.2432 4.49121 12.2432C4.89551 12.2432 5.24707 12.1904 5.5459 12.085C5.85059 11.9795 6.09668 11.8301 6.28418 11.6367C6.47168 11.4434 6.60938 11.2178 6.69727 10.96C6.79102 10.6963 6.83789 10.3945 6.83789 10.0547C6.83789 9.55664 6.69727 9.09375 6.41602 8.66602C6.13477 8.23242 5.71582 7.9043 5.15918 7.68164C4.77832 7.5293 4.3418 7.3623 3.84961 7.18066C3.35742 6.99316 2.93262 6.81738 2.5752 6.65332C1.87207 6.33691 1.32422 5.92383 0.931641 5.41406C0.544922 4.89844 0.351562 4.22754 0.351562 3.40137C0.351562 2.92676 0.448242 2.48438 0.641602 2.07422C0.834961 1.66406 1.11035 1.29785 1.46777 0.975586C1.80762 0.670898 2.20898 0.433594 2.67188 0.263672C3.13477 0.0878906 3.61816 0 4.12207 0C4.69629 0 5.20898 0.0878906 5.66016 0.263672C6.11719 0.439453 6.5332 0.644531 6.9082 0.878906L7.26855 0.28125H7.97168L8.04199 4.4209H7.33008C7.20117 3.94629 7.05469 3.49219 6.89062 3.05859C6.73242 2.625 6.52441 2.23242 6.2666 1.88086C6.01465 1.54102 5.70703 1.27148 5.34375 1.07227C4.98047 0.867188 4.53516 0.764648 4.00781 0.764648C3.45117 0.764648 2.97656 0.943359 2.58398 1.30078C2.19141 1.6582 1.99512 2.09473 1.99512 2.61035C1.99512 3.14941 2.12109 3.59766 2.37305 3.95508C2.625 4.30664 2.99121 4.59668 3.47168 4.8252C3.89941 5.03027 4.31836 5.20898 4.72852 5.36133C5.14453 5.50781 5.5459 5.66602 5.93262 5.83594C6.28418 5.98828 6.62109 6.16113 6.94336 6.35449C7.27148 6.54785 7.55566 6.77344 7.7959 7.03125Z" fill="black"/>
<path d="M24.7588 12.7529H20.5312V12.1729C20.666 12.1611 20.8008 12.1494 20.9355 12.1377C21.0762 12.126 21.1992 12.1025 21.3047 12.0674C21.4688 12.0146 21.5889 11.9238 21.665 11.7949C21.7471 11.6602 21.7881 11.4873 21.7881 11.2764V6.80273C21.7881 6.19336 21.6475 5.72461 21.3662 5.39648C21.0908 5.0625 20.7451 4.89551 20.3291 4.89551C20.042 4.89551 19.7725 4.93945 19.5205 5.02734C19.2686 5.11523 19.0371 5.23828 18.8262 5.39648C18.6562 5.52539 18.5127 5.66602 18.3955 5.81836C18.2842 5.96484 18.1992 6.08789 18.1406 6.1875V11.1885C18.1406 11.3936 18.1758 11.5635 18.2461 11.6982C18.3164 11.8271 18.4365 11.9268 18.6064 11.9971C18.7412 12.0498 18.8613 12.0908 18.9668 12.1201C19.0781 12.1436 19.2217 12.1611 19.3975 12.1729V12.7529H15.2578V12.1729C15.3926 12.1611 15.5215 12.1494 15.6445 12.1377C15.7734 12.126 15.8906 12.1025 15.9961 12.0674C16.1602 12.0146 16.2803 11.9238 16.3564 11.7949C16.4385 11.6602 16.4795 11.4873 16.4795 11.2764V6.80273C16.4795 6.19336 16.3389 5.72461 16.0576 5.39648C15.7822 5.0625 15.4365 4.89551 15.0205 4.89551C14.7334 4.89551 14.4639 4.94238 14.2119 5.03613C13.96 5.12402 13.7285 5.24707 13.5176 5.40527C13.3477 5.53418 13.2041 5.68066 13.0869 5.84473C12.9697 6.00293 12.8818 6.12305 12.8232 6.20508V11.1709C12.8232 11.3701 12.8643 11.5371 12.9463 11.6719C13.0283 11.8066 13.1514 11.9092 13.3154 11.9795C13.4385 12.0381 13.5645 12.082 13.6934 12.1113C13.8223 12.1406 13.9658 12.1611 14.124 12.1729V12.7529H9.91406V12.1729C10.0488 12.1611 10.1865 12.1494 10.3271 12.1377C10.4736 12.126 10.5996 12.1025 10.7051 12.0674C10.8691 12.0146 10.9893 11.9238 11.0654 11.7949C11.1475 11.6602 11.1885 11.4873 11.1885 11.2764V5.88867C11.1885 5.70117 11.1445 5.53418 11.0566 5.3877C10.9746 5.23535 10.8574 5.10645 10.7051 5.00098C10.5938 4.93066 10.4561 4.875 10.292 4.83398C10.1279 4.78711 9.95801 4.75781 9.78223 4.74609V4.1748L12.6826 3.98145L12.8057 4.10449V5.34375H12.8672C13.0137 5.19727 13.1924 5.02441 13.4033 4.8252C13.6143 4.62598 13.8105 4.46484 13.9922 4.3418C14.1973 4.20117 14.4521 4.08398 14.7568 3.99023C15.0674 3.89648 15.4014 3.84961 15.7588 3.84961C16.3213 3.84961 16.8047 4.00195 17.209 4.30664C17.6133 4.60547 17.9033 4.96875 18.0791 5.39648C18.29 5.19141 18.4746 5.0127 18.6328 4.86035C18.7969 4.70215 19.0107 4.53516 19.2744 4.35938C19.4971 4.20703 19.7578 4.08398 20.0566 3.99023C20.3613 3.89648 20.6982 3.84961 21.0674 3.84961C21.7998 3.84961 22.3799 4.08984 22.8076 4.57031C23.2354 5.05078 23.4492 5.78906 23.4492 6.78516V11.1885C23.4492 11.3936 23.4844 11.5635 23.5547 11.6982C23.625 11.8271 23.7451 11.9268 23.915 11.9971C24.0498 12.0498 24.1816 12.0908 24.3105 12.1201C24.4453 12.1436 24.5947 12.1611 24.7588 12.1729V12.7529Z" fill="black"/>
<path d="M33.9785 12.5947C33.7031 12.6943 33.46 12.7734 33.249 12.832C33.0439 12.8965 32.8096 12.9287 32.5459 12.9287C32.0889 12.9287 31.7227 12.8232 31.4473 12.6123C31.1777 12.3955 31.0049 12.082 30.9287 11.6719H30.876C30.4951 12.0938 30.085 12.416 29.6455 12.6387C29.2119 12.8613 28.6875 12.9727 28.0723 12.9727C27.4219 12.9727 26.8857 12.7734 26.4639 12.375C26.0479 11.9766 25.8398 11.4551 25.8398 10.8105C25.8398 10.4766 25.8867 10.1777 25.9805 9.91406C26.0742 9.65039 26.2148 9.41309 26.4023 9.20215C26.5488 9.02637 26.7422 8.87109 26.9824 8.73633C27.2227 8.5957 27.4482 8.48438 27.6592 8.40234C27.9229 8.30273 28.4561 8.11816 29.2588 7.84863C30.0674 7.5791 30.6123 7.36816 30.8936 7.21582V6.3457C30.8936 6.26953 30.876 6.12305 30.8408 5.90625C30.8115 5.68945 30.7441 5.48438 30.6387 5.29102C30.5215 5.07422 30.3545 4.88672 30.1377 4.72852C29.9268 4.56445 29.625 4.48242 29.2324 4.48242C28.9629 4.48242 28.7109 4.5293 28.4766 4.62305C28.248 4.71094 28.0869 4.80469 27.9932 4.9043C27.9932 5.02148 28.0195 5.19434 28.0723 5.42285C28.1309 5.65137 28.1602 5.8623 28.1602 6.05566C28.1602 6.26074 28.0664 6.44824 27.8789 6.61816C27.6973 6.78809 27.4424 6.87305 27.1143 6.87305C26.8213 6.87305 26.6045 6.77051 26.4639 6.56543C26.3291 6.35449 26.2617 6.12012 26.2617 5.8623C26.2617 5.59277 26.3555 5.33496 26.543 5.08887C26.7363 4.84277 26.9854 4.62305 27.29 4.42969C27.5537 4.26562 27.873 4.12793 28.248 4.0166C28.623 3.89941 28.9893 3.84082 29.3467 3.84082C29.8389 3.84082 30.2666 3.87598 30.6299 3.94629C30.999 4.01074 31.333 4.1543 31.6318 4.37695C31.9307 4.59375 32.1562 4.88965 32.3086 5.26465C32.4668 5.63379 32.5459 6.11133 32.5459 6.69727C32.5459 7.53516 32.5371 8.2793 32.5195 8.92969C32.502 9.57422 32.4932 10.2803 32.4932 11.0479C32.4932 11.2764 32.5312 11.458 32.6074 11.5928C32.6895 11.7275 32.8125 11.8418 32.9766 11.9355C33.0645 11.9883 33.2021 12.0176 33.3896 12.0234C33.583 12.0293 33.7793 12.0322 33.9785 12.0322V12.5947ZM30.9111 7.9541C30.4131 8.10059 29.9766 8.24414 29.6016 8.38477C29.2266 8.52539 28.8779 8.70117 28.5557 8.91211C28.2627 9.11133 28.0312 9.34863 27.8613 9.62402C27.6914 9.89355 27.6064 10.2158 27.6064 10.5908C27.6064 11.0771 27.7324 11.4346 27.9844 11.6631C28.2422 11.8916 28.5674 12.0059 28.96 12.0059C29.376 12.0059 29.7422 11.9062 30.0586 11.707C30.375 11.502 30.6416 11.2617 30.8584 10.9863L30.9111 7.9541Z" fill="black"/>
<path d="M41.4756 5.20312C41.4756 5.50195 41.4023 5.76855 41.2559 6.00293C41.1094 6.23145 40.8838 6.3457 40.5791 6.3457C40.251 6.3457 39.999 6.26074 39.8232 6.09082C39.6533 5.9209 39.5684 5.7334 39.5684 5.52832C39.5684 5.39941 39.5771 5.28223 39.5947 5.17676C39.6182 5.07129 39.6387 4.96582 39.6562 4.86035C39.3809 4.86035 39.0586 4.97168 38.6895 5.19434C38.3203 5.41699 38.0068 5.7334 37.749 6.14355V11.1885C37.749 11.3936 37.7871 11.5605 37.8633 11.6895C37.9453 11.8184 38.0713 11.915 38.2412 11.9795C38.3877 12.0381 38.5752 12.082 38.8037 12.1113C39.0381 12.1406 39.2402 12.1611 39.4102 12.1729V12.7529H34.8398V12.1729C34.9746 12.1611 35.1123 12.1494 35.2529 12.1377C35.3994 12.126 35.5254 12.1025 35.6309 12.0674C35.7949 12.0146 35.915 11.9238 35.9912 11.7949C36.0732 11.6602 36.1143 11.4873 36.1143 11.2764V5.92383C36.1143 5.74219 36.0703 5.56348 35.9824 5.3877C35.9004 5.21191 35.7832 5.07129 35.6309 4.96582C35.5195 4.89551 35.3877 4.8457 35.2354 4.81641C35.083 4.78125 34.9189 4.75781 34.7432 4.74609V4.1748L37.626 3.98145L37.749 4.10449V5.32617H37.793C38.1562 4.85156 38.5605 4.49121 39.0059 4.24512C39.4512 3.99902 39.8584 3.87598 40.2275 3.87598C40.5967 3.87598 40.8955 3.99609 41.124 4.23633C41.3584 4.47656 41.4756 4.79883 41.4756 5.20312Z" fill="black"/>
<path d="M47.5752 12.375C47.1943 12.5332 46.834 12.665 46.4941 12.7705C46.1543 12.8818 45.7383 12.9375 45.2461 12.9375C44.5195 12.9375 44.0068 12.7559 43.708 12.3926C43.415 12.0234 43.2686 11.5049 43.2686 10.8369V4.96582H41.7041V4.12207H43.3037V1.42383H44.9033V4.12207H47.3906V4.96582H44.9209V9.80859C44.9209 10.1719 44.9326 10.4766 44.9561 10.7227C44.9854 10.9629 45.0498 11.1738 45.1494 11.3555C45.2432 11.5254 45.3838 11.6543 45.5713 11.7422C45.7588 11.8301 46.0107 11.874 46.3271 11.874C46.4736 11.874 46.6875 11.8623 46.9688 11.8389C47.2559 11.8096 47.458 11.7744 47.5752 11.7334V12.375Z" fill="black"/>
<path d="M59.6672 14.256C58.6472 14.256 57.7052 14.076 56.8412 13.716C55.9772 13.368 55.2272 12.876 54.5912 12.24C53.9552 11.592 53.4572 10.836 53.0972 9.972C52.7492 9.108 52.5752 8.166 52.5752 7.146C52.5752 6.114 52.7552 5.166 53.1152 4.302C53.4752 3.426 53.9732 2.67 54.6092 2.034C55.2572 1.386 56.0132 0.887999 56.8772 0.539999C57.7412 0.179999 58.6712 0 59.6672 0C60.6872 0 61.6292 0.179999 62.4932 0.539999C63.3692 0.899999 64.1312 1.404 64.7792 2.052C65.4272 2.7 65.9312 3.462 66.2912 4.338C66.6512 5.202 66.8312 6.138 66.8312 7.146C66.8312 8.142 66.6512 9.072 66.2912 9.936C65.9432 10.8 65.4452 11.556 64.7972 12.204C64.1612 12.852 63.4052 13.356 62.5292 13.716C61.6652 14.076 60.7112 14.256 59.6672 14.256ZM59.1272 12.87V1.386L58.0832 1.584V12.708L59.1272 12.87ZM60.2252 12.87L61.2692 12.708V1.584L60.2252 1.386V12.87ZM56.9852 12.258V1.998C56.6132 2.202 56.2712 2.442 55.9592 2.718V11.574C56.1272 11.682 56.2952 11.796 56.4632 11.916C56.6432 12.024 56.8172 12.138 56.9852 12.258ZM62.3492 12.276L63.3932 11.574V2.682L62.3492 1.998V12.276ZM64.5092 10.368C65.1452 9.444 65.4632 8.37 65.4632 7.146C65.4632 5.982 65.1452 4.908 64.5092 3.924V10.368ZM54.8792 10.368V3.942C54.2672 4.878 53.9612 5.946 53.9612 7.146C53.9612 7.734 54.0332 8.298 54.1772 8.838C54.3332 9.366 54.5672 9.876 54.8792 10.368Z" fill="#71B340"/>
<path d="M81.6133 3.12012H80.9541C80.8311 2.65723 80.5732 2.16211 80.1807 1.63477C79.7939 1.10742 79.4219 0.817383 79.0645 0.764648C78.8828 0.741211 78.666 0.723633 78.4141 0.711914C78.168 0.700195 77.8867 0.694336 77.5703 0.694336H75.4785V5.7041H76.9111C77.3447 5.7041 77.6816 5.66016 77.9219 5.57227C78.1621 5.47852 78.3672 5.33789 78.5371 5.15039C78.6543 5.02148 78.7598 4.82227 78.8535 4.55273C78.9531 4.27734 79.0176 3.98438 79.0469 3.67383H79.7148V8.56934H79.0469C79.0293 8.31152 78.9678 8.01855 78.8623 7.69043C78.7627 7.3623 78.6543 7.125 78.5371 6.97852C78.3613 6.76172 78.1387 6.61523 77.8691 6.53906C77.6055 6.45703 77.2861 6.41602 76.9111 6.41602H75.4785V10.7139C75.4785 10.9072 75.5166 11.0801 75.5928 11.2324C75.6689 11.3848 75.8037 11.5078 75.9971 11.6016C76.085 11.6426 76.2754 11.6924 76.5684 11.751C76.8613 11.8096 77.084 11.8418 77.2363 11.8477V12.4717H71.8311V11.8477C72.0068 11.8359 72.2412 11.8184 72.5342 11.7949C72.8271 11.7656 73.0176 11.7305 73.1055 11.6895C73.2812 11.6133 73.4072 11.502 73.4834 11.3555C73.5654 11.2031 73.6064 11.0215 73.6064 10.8105V1.81055C73.6064 1.61719 73.5742 1.44727 73.5098 1.30078C73.4453 1.14844 73.3105 1.02539 73.1055 0.931641C72.9473 0.855469 72.7334 0.788086 72.4639 0.729492C72.2002 0.670898 71.9893 0.635742 71.8311 0.624023V0H81.6133V3.12012Z" fill="black"/>
<path d="M90.9473 8.05078C90.9473 8.66016 90.8506 9.26074 90.6572 9.85254C90.4639 10.4385 90.1885 10.9365 89.8311 11.3467C89.4268 11.8154 88.958 12.1641 88.4248 12.3926C87.8916 12.6211 87.2939 12.7354 86.6318 12.7354C86.0811 12.7354 85.5566 12.6328 85.0586 12.4277C84.5605 12.2168 84.1182 11.9121 83.7314 11.5137C83.3506 11.1211 83.0459 10.6436 82.8174 10.0811C82.5947 9.5127 82.4834 8.87695 82.4834 8.17383C82.4834 6.82031 82.876 5.71289 83.6611 4.85156C84.4521 3.99023 85.4863 3.55957 86.7637 3.55957C87.9766 3.55957 88.9756 3.96973 89.7607 4.79004C90.5518 5.60449 90.9473 6.69141 90.9473 8.05078ZM89.1279 8.06836C89.1279 7.62891 89.084 7.16602 88.9961 6.67969C88.9082 6.1875 88.7764 5.77148 88.6006 5.43164C88.4131 5.06836 88.167 4.77832 87.8623 4.56152C87.5576 4.33887 87.1855 4.22754 86.7461 4.22754C86.2949 4.22754 85.9082 4.33887 85.5859 4.56152C85.2695 4.78418 85.0117 5.08887 84.8125 5.47559C84.625 5.83301 84.4932 6.24023 84.417 6.69727C84.3408 7.1543 84.3027 7.59668 84.3027 8.02441C84.3027 8.58691 84.3467 9.1084 84.4346 9.58887C84.5283 10.0635 84.6748 10.4883 84.874 10.8633C85.0732 11.2383 85.3223 11.5342 85.6211 11.751C85.9258 11.9619 86.3008 12.0674 86.7461 12.0674C87.4785 12.0674 88.0586 11.7129 88.4863 11.0039C88.9141 10.2949 89.1279 9.31641 89.1279 8.06836Z" fill="black"/>
<path d="M98.8398 4.92188C98.8398 5.2207 98.7666 5.4873 98.6201 5.72168C98.4736 5.9502 98.248 6.06445 97.9434 6.06445C97.6152 6.06445 97.3633 5.97949 97.1875 5.80957C97.0176 5.63965 96.9326 5.45215 96.9326 5.24707C96.9326 5.11816 96.9414 5.00098 96.959 4.89551C96.9824 4.79004 97.0029 4.68457 97.0205 4.5791C96.7451 4.5791 96.4229 4.69043 96.0537 4.91309C95.6846 5.13574 95.3711 5.45215 95.1133 5.8623V10.9072C95.1133 11.1123 95.1514 11.2793 95.2275 11.4082C95.3096 11.5371 95.4355 11.6338 95.6055 11.6982C95.752 11.7568 95.9395 11.8008 96.168 11.8301C96.4023 11.8594 96.6045 11.8799 96.7744 11.8916V12.4717H92.2041V11.8916C92.3389 11.8799 92.4766 11.8682 92.6172 11.8564C92.7637 11.8447 92.8896 11.8213 92.9951 11.7861C93.1592 11.7334 93.2793 11.6426 93.3555 11.5137C93.4375 11.3789 93.4785 11.2061 93.4785 10.9951V5.64258C93.4785 5.46094 93.4346 5.28223 93.3467 5.10645C93.2646 4.93066 93.1475 4.79004 92.9951 4.68457C92.8838 4.61426 92.752 4.56445 92.5996 4.53516C92.4473 4.5 92.2832 4.47656 92.1074 4.46484V3.89355L94.9902 3.7002L95.1133 3.82324V5.04492H95.1572C95.5205 4.57031 95.9248 4.20996 96.3701 3.96387C96.8154 3.71777 97.2227 3.59473 97.5918 3.59473C97.9609 3.59473 98.2598 3.71484 98.4883 3.95508C98.7227 4.19531 98.8398 4.51758 98.8398 4.92188Z" fill="black"/>
<path d="M107.286 10.4326C106.923 11.124 106.437 11.6748 105.827 12.085C105.218 12.4951 104.518 12.7002 103.727 12.7002C103.029 12.7002 102.417 12.5771 101.89 12.3311C101.368 12.085 100.938 11.751 100.598 11.3291C100.258 10.9072 100.003 10.415 99.833 9.85254C99.6689 9.29004 99.5869 8.69531 99.5869 8.06836C99.5869 7.50586 99.6748 6.95508 99.8506 6.41602C100.032 5.87109 100.296 5.38184 100.642 4.94824C100.976 4.53223 101.389 4.19824 101.881 3.94629C102.379 3.68848 102.936 3.55957 103.551 3.55957C104.184 3.55957 104.726 3.65918 105.177 3.8584C105.628 4.05762 105.994 4.33008 106.275 4.67578C106.545 5.00391 106.744 5.39062 106.873 5.83594C107.008 6.28125 107.075 6.76465 107.075 7.28613V7.86621H101.336C101.336 8.43457 101.389 8.9502 101.494 9.41309C101.605 9.87598 101.778 10.2832 102.013 10.6348C102.241 10.9746 102.54 11.2441 102.909 11.4434C103.278 11.6367 103.718 11.7334 104.228 11.7334C104.749 11.7334 105.197 11.6133 105.572 11.373C105.953 11.127 106.319 10.6875 106.671 10.0547L107.286 10.4326ZM105.344 7.12793C105.344 6.7998 105.314 6.44824 105.256 6.07324C105.203 5.69824 105.115 5.38477 104.992 5.13281C104.857 4.86328 104.673 4.64355 104.438 4.47363C104.204 4.30371 103.902 4.21875 103.533 4.21875C102.918 4.21875 102.405 4.47656 101.995 4.99219C101.591 5.50195 101.371 6.21387 101.336 7.12793H105.344Z" fill="black"/>
<path d="M114.01 8.22656C114.25 8.4375 114.435 8.68066 114.563 8.95605C114.692 9.23145 114.757 9.56836 114.757 9.9668C114.757 10.7695 114.455 11.4258 113.852 11.9355C113.254 12.4453 112.478 12.7002 111.522 12.7002C111.019 12.7002 110.553 12.6094 110.125 12.4277C109.703 12.2461 109.401 12.0791 109.22 11.9268L109.044 12.498H108.385L108.297 9.4834H108.903C108.95 9.71191 109.05 9.97852 109.202 10.2832C109.354 10.5879 109.539 10.8633 109.756 11.1094C109.984 11.3672 110.257 11.584 110.573 11.7598C110.896 11.9355 111.256 12.0234 111.654 12.0234C112.217 12.0234 112.65 11.8975 112.955 11.6455C113.26 11.3877 113.412 11.0215 113.412 10.5469C113.412 10.3008 113.362 10.0898 113.263 9.91406C113.169 9.73242 113.028 9.57422 112.841 9.43945C112.647 9.30469 112.41 9.18457 112.129 9.0791C111.848 8.96777 111.534 8.85938 111.188 8.75391C110.913 8.67188 110.605 8.56055 110.266 8.41992C109.932 8.27344 109.645 8.10352 109.404 7.91016C109.146 7.70508 108.936 7.45312 108.771 7.1543C108.607 6.85547 108.525 6.50391 108.525 6.09961C108.525 5.39062 108.789 4.79004 109.316 4.29785C109.844 3.80566 110.55 3.55957 111.435 3.55957C111.774 3.55957 112.12 3.60352 112.472 3.69141C112.829 3.7793 113.119 3.88477 113.342 4.00781L113.544 3.55078H114.177L114.309 6.33691H113.702C113.579 5.71582 113.312 5.21191 112.902 4.8252C112.498 4.43262 112.003 4.23633 111.417 4.23633C110.937 4.23633 110.559 4.35645 110.283 4.59668C110.008 4.83691 109.87 5.12695 109.87 5.4668C109.87 5.73047 109.914 5.9502 110.002 6.12598C110.096 6.30176 110.233 6.45117 110.415 6.57422C110.591 6.69141 110.811 6.80273 111.074 6.9082C111.344 7.00781 111.675 7.12207 112.067 7.25098C112.454 7.37402 112.817 7.51758 113.157 7.68164C113.503 7.8457 113.787 8.02734 114.01 8.22656Z" fill="black"/>
<path d="M121.428 12.0938C121.047 12.252 120.687 12.3838 120.347 12.4893C120.007 12.6006 119.591 12.6562 119.099 12.6562C118.372 12.6562 117.859 12.4746 117.561 12.1113C117.268 11.7422 117.121 11.2236 117.121 10.5557V4.68457H115.557V3.84082H117.156V1.14258H118.756V3.84082H121.243V4.68457H118.773V9.52734C118.773 9.89062 118.785 10.1953 118.809 10.4414C118.838 10.6816 118.902 10.8926 119.002 11.0742C119.096 11.2441 119.236 11.373 119.424 11.4609C119.611 11.5488 119.863 11.5928 120.18 11.5928C120.326 11.5928 120.54 11.5811 120.821 11.5576C121.108 11.5283 121.311 11.4932 121.428 11.4521V12.0938Z" fill="black"/>
<path d="M128.02 8.22656C128.26 8.4375 128.444 8.68066 128.573 8.95605C128.702 9.23145 128.767 9.56836 128.767 9.9668C128.767 10.7695 128.465 11.4258 127.861 11.9355C127.264 12.4453 126.487 12.7002 125.532 12.7002C125.028 12.7002 124.562 12.6094 124.135 12.4277C123.713 12.2461 123.411 12.0791 123.229 11.9268L123.054 12.498H122.395L122.307 9.4834H122.913C122.96 9.71191 123.06 9.97852 123.212 10.2832C123.364 10.5879 123.549 10.8633 123.766 11.1094C123.994 11.3672 124.267 11.584 124.583 11.7598C124.905 11.9355 125.266 12.0234 125.664 12.0234C126.227 12.0234 126.66 11.8975 126.965 11.6455C127.27 11.3877 127.422 11.0215 127.422 10.5469C127.422 10.3008 127.372 10.0898 127.272 9.91406C127.179 9.73242 127.038 9.57422 126.851 9.43945C126.657 9.30469 126.42 9.18457 126.139 9.0791C125.857 8.96777 125.544 8.85938 125.198 8.75391C124.923 8.67188 124.615 8.56055 124.275 8.41992C123.941 8.27344 123.654 8.10352 123.414 7.91016C123.156 7.70508 122.945 7.45312 122.781 7.1543C122.617 6.85547 122.535 6.50391 122.535 6.09961C122.535 5.39062 122.799 4.79004 123.326 4.29785C123.854 3.80566 124.56 3.55957 125.444 3.55957C125.784 3.55957 126.13 3.60352 126.481 3.69141C126.839 3.7793 127.129 3.88477 127.352 4.00781L127.554 3.55078H128.187L128.318 6.33691H127.712C127.589 5.71582 127.322 5.21191 126.912 4.8252C126.508 4.43262 126.013 4.23633 125.427 4.23633C124.946 4.23633 124.568 4.35645 124.293 4.59668C124.018 4.83691 123.88 5.12695 123.88 5.4668C123.88 5.73047 123.924 5.9502 124.012 6.12598C124.105 6.30176 124.243 6.45117 124.425 6.57422C124.601 6.69141 124.82 6.80273 125.084 6.9082C125.354 7.00781 125.685 7.12207 126.077 7.25098C126.464 7.37402 126.827 7.51758 127.167 7.68164C127.513 7.8457 127.797 8.02734 128.02 8.22656Z" fill="black"/>
</svg>
